<svg xmlns="http://www.w3.org/2000/svg" xmlns:xlink="http://www.w3.org/1999/xlink"><symbol viewBox="0 0 20 20" id="chevron-small-down"><path d="M13.418 7.859a.695.695 0 0 1 .978 0 .68.68 0 0 1 0 .969l-3.908 3.83a.697.697 0 0 1-.979 0l-3.908-3.83a.68.68 0 0 1 0-.969.695.695 0 0 1 .978 0L10 11l3.418-3.141z"/></symbol><symbol viewBox="0 0 20 20" id="chevron-small-left"><path d="M12.141 13.418a.695.695 0 0 1 0 .978.68.68 0 0 1-.969 0l-3.83-3.908a.697.697 0 0 1 0-.979l3.83-3.908a.68.68 0 0 1 .969 0 .695.695 0 0 1 0 .978L9 10l3.141 3.418z"/></symbol><symbol viewBox="0 0 20 20" id="chevron-small-right"><path d="M11 10L7.859 6.58a.695.695 0 0 1 0-.978.68.68 0 0 1 .969 0l3.83 3.908a.697.697 0 0 1 0 .979l-3.83 3.908a.68.68 0 0 1-.969 0 .695.695 0 0 1 0-.978L11 10z"/></symbol><symbol viewBox="0 0 20 20" id="chevron-small-up"><path d="M6.582 12.141a.695.695 0 0 1-.978 0 .68.68 0 0 1 0-.969l3.908-3.83a.697.697 0 0 1 .979 0l3.908 3.83a.68.68 0 0 1 0 .969.697.697 0 0 1-.979 0L10 9l-3.418 3.141z"/></symbol><symbol viewBox="0 0 20 20" id="cross"><path d="M14.348 14.849a1.2 1.2 0 0 1-1.697 0L10 11.819l-2.651 3.029a1.2 1.2 0 1 1-1.697-1.697l2.758-3.15-2.759-3.152a1.2 1.2 0 1 1 1.697-1.697L10 8.183l2.651-3.031a1.2 1.2 0 1 1 1.697 1.697l-2.758 3.152 2.758 3.15a1.2 1.2 0 0 1 0 1.698z"/></symbol><symbol viewBox="0 0 20 20" id="menu"><path d="M16.4 9H3.6c-.552 0-.6.447-.6 1 0 .553.048 1 .6 1h12.8c.552 0 .6-.447.6-1 0-.553-.048-1-.6-1zm0 4H3.6c-.552 0-.6.447-.6 1 0 .553.048 1 .6 1h12.8c.552 0 .6-.447.6-1 0-.553-.048-1-.6-1zM3.6 7h12.8c.552 0 .6-.447.6-1 0-.553-.048-1-.6-1H3.6c-.552 0-.6.447-.6 1 0 .553.048 1 .6 1z"/></symbol><symbol viewBox="0 0 20 20" id="minus"><path d="M16 10c0 .553-.048 1-.601 1H4.601C4.049 11 4 10.553 4 10c0-.553.049-1 .601-1H15.4c.552 0 .6.447.6 1z"/></symbol><symbol viewBox="0 0 20 20" id="plus"><path d="M16 10c0 .553-.048 1-.601 1H11v4.399c0 .552-.447.601-1 .601-.553 0-1-.049-1-.601V11H4.601C4.049 11 4 10.553 4 10c0-.553.049-1 .601-1H9V4.601C9 4.048 9.447 4 10 4c.553 0 1 .048 1 .601V9h4.399c.553 0 .601.447.601 1z"/></symbol></svg>