<svg xmlns="http://www.w3.org/2000/svg" xmlns:xlink="http://www.w3.org/1999/xlink"><symbol id="chevron-small-down" viewBox="0 0 20 20">
<path d="M13.418,7.859c0.271-0.268,0.709-0.268,0.978,0c0.27,0.268,0.272,0.701,0,0.969l-3.908,3.83
	c-0.27,0.268-0.707,0.268-0.979,0l-3.908-3.83c-0.27-0.267-0.27-0.701,0-0.969c0.271-0.268,0.709-0.268,0.978,0L10,11L13.418,7.859z
	"/>
</symbol><symbol id="chevron-small-left" viewBox="0 0 20 20">
<path d="M12.141,13.418c0.268,0.271,0.268,0.709,0,0.978c-0.268,0.27-0.701,0.272-0.969,0l-3.83-3.908
	c-0.268-0.27-0.268-0.707,0-0.979l3.83-3.908c0.267-0.27,0.701-0.27,0.969,0c0.268,0.271,0.268,0.709,0,0.978L9,10L12.141,13.418z"/>
</symbol><symbol id="chevron-small-right" viewBox="0 0 20 20">
<path d="M11,10L7.859,6.58c-0.268-0.27-0.268-0.707,0-0.978c0.268-0.27,0.701-0.27,0.969,0l3.83,3.908
	c0.268,0.271,0.268,0.709,0,0.979l-3.83,3.908c-0.267,0.272-0.701,0.27-0.969,0c-0.268-0.269-0.268-0.707,0-0.978L11,10z"/>
</symbol><symbol id="chevron-small-up" viewBox="0 0 20 20">
<path d="M6.582,12.141c-0.271,0.268-0.709,0.268-0.978,0c-0.269-0.268-0.272-0.701,0-0.969l3.908-3.83
	c0.27-0.268,0.707-0.268,0.979,0l3.908,3.83c0.27,0.267,0.27,0.701,0,0.969c-0.271,0.268-0.709,0.268-0.979,0L10,9L6.582,12.141z"/>
</symbol><symbol id="cross" viewBox="0 0 20 20">
<path d="M14.348,14.849c-0.469,0.469-1.229,0.469-1.697,0L10,11.819l-2.651,3.029c-0.469,0.469-1.229,0.469-1.697,0
	c-0.469-0.469-0.469-1.229,0-1.697l2.758-3.15L5.651,6.849c-0.469-0.469-0.469-1.228,0-1.697c0.469-0.469,1.228-0.469,1.697,0
	L10,8.183l2.651-3.031c0.469-0.469,1.228-0.469,1.697,0c0.469,0.469,0.469,1.229,0,1.697l-2.758,3.152l2.758,3.15
	C14.817,13.62,14.817,14.38,14.348,14.849z"/>
</symbol><symbol id="menu" viewBox="0 0 20 20">
<path d="M16.4,9H3.6C3.048,9,3,9.447,3,10c0,0.553,0.048,1,0.6,1H16.4c0.552,0,0.6-0.447,0.6-1C17,9.447,16.952,9,16.4,9z M16.4,13
	H3.6C3.048,13,3,13.447,3,14c0,0.553,0.048,1,0.6,1H16.4c0.552,0,0.6-0.447,0.6-1C17,13.447,16.952,13,16.4,13z M3.6,7H16.4
	C16.952,7,17,6.553,17,6c0-0.553-0.048-1-0.6-1H3.6C3.048,5,3,5.447,3,6C3,6.553,3.048,7,3.6,7z"/>
</symbol><symbol id="minus" viewBox="0 0 20 20">
<path d="M16,10c0,0.553-0.048,1-0.601,1H4.601C4.049,11,4,10.553,4,10c0-0.553,0.049-1,0.601-1h10.799C15.952,9,16,9.447,16,10z"/>
</symbol><symbol id="plus" viewBox="0 0 20 20">
<path d="M16,10c0,0.553-0.048,1-0.601,1H11v4.399C11,15.951,10.553,16,10,16c-0.553,0-1-0.049-1-0.601V11H4.601
	C4.049,11,4,10.553,4,10c0-0.553,0.049-1,0.601-1H9V4.601C9,4.048,9.447,4,10,4c0.553,0,1,0.048,1,0.601V9h4.399
	C15.952,9,16,9.447,16,10z"/>
</symbol></svg>