<svg xmlns="http://www.w3.org/2000/svg" xmlns:xlink="http://www.w3.org/1999/xlink"><symbol id="animations_effects" viewBox="0 0 80 78.9" xmlns="http://www.w3.org/2000/svg"><style>.ast0{opacity:.2;fill:#242a32}.ast1{opacity:.5}.ast1,.ast2{fill:#242a32}</style><path class="ast0" d="M78.9 43.4l-.2-.1-8.2-3.5v-1.1c0-2.5-.5-5.3-1.3-8.3l-.3-1.1 6.7-5.6c.5-.6.6-1.2.3-1.7l-4-6.5c-.4-.5-1.2-.6-1.7-.5L62 18.4l-.8-.8c-1.9-2-4-3.6-6.7-5l-1-.5.6-8.6c0-.5-.4-1-1-1.2L45.7.5c-.1 0-1.1-.4-1.4.4L40.8 9h-1.1c-3 0-5.7.4-8.5 1.3l-1 .3L24.6 4c-.6-.5-1.2-.6-1.7-.3l-6.6 4c-.6.4-.7 1.1-.6 1.3v.1l3.3 8.3-.7.8c-1.9 2-3.6 4.3-4.9 6.8l-.5 1-9-.7c-.6 0-1.5.4-1.6.9L.5 33.6c-.1.5.2 1.3.8 1.5h.1l8.2 3.5v1.1c0 3 .5 5.7 1.3 8.3l.4 1.1-6.7 5.8c-.4.3-.5 1-.4 1.4l3.9 6.5c.4.6 1 .9 1.5.6l.1-.1L18 60l.8.7c2 1.9 4.3 3.6 6.8 4.9l1 .5-.6 9c0 .6.4 1.4.9 1.6l7.4 1.8c.6.2 1.3-.2 1.5-.8v-.1l3.5-8.2h1.1c2.7-.1 5.5-.5 8.2-1.2l1-.3 5.6 6.7c.6.5 1.2.6 1.7.3l6.6-4c.6-.4.9-1 .6-1.5v-.1l-3.4-8.2.8-.8c2-1.9 3.6-4 5-6.7l.5-1 9.1.8c.5 0 1.4-.3 1.5-.9l1.8-7.4c.3-.4.2-1.4-.5-1.7zm-20.6.3C55.8 53.8 45.5 60 35.4 57.5 25.3 55 19.1 44.8 21.6 34.7s12.7-16.3 22.8-13.8c10.2 2.4 16.4 12.7 13.9 22.8z"/><path class="ast1" d="M79.1 38.9h-.2l-8.5-2.6-.2-1.1c-.3-2.5-1.1-5.2-2.3-8.1l-.4-1 6-6.3c.5-.6.5-1.2.1-1.7L68.9 12c-.5-.5-1.2-.5-1.7-.3L59.5 16l-.9-.7c-2.1-1.7-4.4-3.1-7.2-4.2l-1-.4-.4-8.6c-.1-.5-.5-1-1.2-1.1l-7.6-1c-.1 0-1.1-.3-1.3.6L37.3 9l-1.1.1c-2.9.3-5.7 1.1-8.3 2.2l-1 .4L20.6 6c-.6-.5-1.2-.5-1.8-.1l-6.1 4.7c-.6.4-.6 1.1-.4 1.4v.1l4.2 7.9-.6.9c-1.7 2.2-3 4.7-4.1 7.3l-.4 1-9 .3c-.5.1-1.3.5-1.4 1l-1 7.6c-.1.6.3 1.2 1 1.4h.1l8.6 2.6.1 1.1c.3 2.9 1.1 5.6 2.3 8.1l.5 1-6 6.5c-.4.4-.4 1.1-.2 1.5l4.7 6c.4.5 1.1.7 1.5.5l.1-.1 7.9-4.2.9.6c2.2 1.7 4.7 3 7.3 4.1l1 .4.3 8.8c.1.6.5 1.4 1.1 1.5l7.6 1c.6.1 1.2-.4 1.4-1v-.1l2.6-8.6 1.1-.2c2.7-.4 5.4-1.1 8-2.2l1-.4 6.3 6c.6.5 1.2.5 1.7.1l6.1-4.7c.5-.4.7-1.1.5-1.5l-.1-.1-4.3-7.7.7-.9c1.7-2.1 3.1-4.4 4.2-7.2l.4-1 9.1-.3c.5-.1 1.3-.4 1.4-1.1l1-7.6c.1-.3 0-1.3-.8-1.5zm-20.5 2.7c-1.3 10.3-10.8 17.6-21.1 16.3-10.3-1.3-17.6-10.8-16.3-21.1S32 19.1 42.3 20.5c10.3 1.3 17.6 10.8 16.3 21.1z"/><path class="ast2" d="M78.7 33.9h-.2l-8.8-1.5-.3-1.1c-.6-2.4-1.7-5-3.3-7.8l-.5-.9 5.1-7c.4-.7.3-1.3-.1-1.7l-5.4-5.4c-.5-.4-1.3-.3-1.8-.1l-7.1 5.2-1-.6c-2.3-1.5-4.8-2.5-7.7-3.3l-1.1-.3L45.1.9c-.2-.5-.6-.9-1.3-.9h-7.7c-.1 0-1.2-.1-1.3.7l-1.5 8.7-1.1.3c-2.9.7-5.5 1.8-7.9 3.3l-.9.6-7-5c-.7-.4-1.3-.3-1.8.1l-5.5 5.5c-.5.5-.4 1.2-.2 1.4l.1.1 5.2 7.3-.4 1c-1.4 2.4-2.4 5-3.1 7.8l-.3 1.1-8.9 1.4c-.6.2-1.3.7-1.3 1.3v7.7c0 .6.5 1.2 1.2 1.3h.1l8.8 1.5.3 1.1c.7 2.9 1.8 5.4 3.3 7.7l.6.9L9.4 63c-.4.4-.2 1.1 0 1.5l5.4 5.4c.5.5 1.2.6 1.6.3l.1-.1 7.3-5.2.9.5c2.4 1.4 5 2.4 7.8 3.1l1.1.3 1.4 8.7c.2.6.7 1.3 1.3 1.3H44c.7 0 1.2-.5 1.3-1.1v-.1l1.5-8.8 1-.3c2.6-.7 5.2-1.8 7.6-3.2l.9-.5 7 5.1c.7.4 1.3.3 1.7-.1l5.5-5.5c.5-.5.6-1.2.3-1.6l-.1-.1-5.2-7.1.6-1c1.5-2.3 2.5-4.8 3.3-7.7l.3-1.1 9-1.4c.5-.2 1.3-.6 1.3-1.3v-7.7c-.2-.3-.5-1.3-1.3-1.4zm-20 5.3c0 10.4-8.5 18.9-18.9 18.9-10.3 0-18.8-8.5-18.8-18.9s8.5-18.9 18.9-18.9c10.4 0 18.8 8.5 18.8 18.9z"/></symbol><symbol viewBox="0 0 20 20" id="chevron-small-down" xmlns="http://www.w3.org/2000/svg"><path d="M13.418 7.859a.695.695 0 0 1 .978 0 .68.68 0 0 1 0 .969l-3.908 3.83a.697.697 0 0 1-.979 0l-3.908-3.83a.68.68 0 0 1 0-.969.695.695 0 0 1 .978 0L10 11l3.418-3.141z"/></symbol><symbol viewBox="0 0 20 20" id="chevron-small-up" xmlns="http://www.w3.org/2000/svg"><path d="M6.582 12.141a.695.695 0 0 1-.978 0 .68.68 0 0 1 0-.969l3.908-3.83a.697.697 0 0 1 .979 0l3.908 3.83a.68.68 0 0 1 0 .969.697.697 0 0 1-.979 0L10 9l-3.418 3.141z"/></symbol><symbol id="fonts" viewBox="0 0 80 42.8" xmlns="http://www.w3.org/2000/svg"><style>.dst0{fill:#242a32}</style><path class="dst0" d="M28.8.4c-.1-.3-.4-.4-.6-.4H18.1c-.2 0-.4.1-.5.4L0 41.3c-.1.5.2.9.6.9h10.8c.3 0 .5-.2.6-.4l2.7-6c.1-.3.4-.4.6-.4h15.4c.3 0 .5.2.6.4l2.5 5.9c.1.3.4.4.6.4h11c.5 0 .8-.4.6-.8L28.8.4zm-2.4 25.2h-7.8c-.5 0-.8-.4-.6-.8l3.8-9.4c.2-.5.9-.5 1.1 0l3.9 9.4c.1.4-.1.8-.4.8zm52.8-8.1c-.6-1.7-1.5-3.1-2.7-4.3-1.3-1.2-3-2.2-5-2.9s-4.5-1-7.4-1c-2.8 0-5.2.2-7.3.7-1.8.4-3.6.9-5.3 1.6-.3.1-.5.4-.4.7l2 6.8c.1.3.5.5.8.4 1.2-.5 2.4-.8 3.6-1.1 1.4-.3 3-.5 4.7-.5 2.2 0 3.8.5 4.9 1.4 1.1.9 1.6 2.2 1.6 3.9 0 .3-.2.5-.5.4-.8-.3-1.8-.5-2.9-.7-1.3-.3-2.8-.4-4.3-.4-1.9 0-3.6.3-5.2.7-1.6.4-2.9 1.1-4 1.9-1.1.9-2 1.9-2.6 3.2-.6 1.3-.9 2.7-.9 4.4v.1c0 1.6.2 3.1.8 4.3.6 1.2 1.3 2.3 2.3 3.1.9.8 2.1 1.5 3.4 1.9 1.3.5 2.7.7 4.3.7 2.2 0 4-.3 5.6-1.1 1.6-.8 2.9-1.8 4-3v2.7c0 .3.3.6.6.6h10.1c.3 0 .6-.3.6-.6v-18c0-2.2-.3-4.2-.8-5.9zM68.9 30.4c0 1.6-.6 2.9-1.6 3.9-1.1.9-2.4 1.4-4.1 1.4-1.1 0-2.1-.3-2.8-.9-.7-.6-1.1-1.5-1.1-2.6v-.1c0-1.2.4-2.2 1.3-2.9.9-.7 2.2-1.1 3.9-1.1.8 0 1.6 0 2.4.2.6.1 1.1.2 1.6.4.2.1.4.3.4.6v1.1z"/></symbol><symbol id="images" viewBox="0 0 80 80" xmlns="http://www.w3.org/2000/svg"><style>.est0{fill:#242a32}</style><path class="est0" d="M21.9 13.6c-4.2-.9-8 2.3-8 6.4 0 3.7 3 6.6 6.6 6.6 4.1 0 7.3-3.7 6.4-8-.5-2.5-2.5-4.5-5-5zm56-5.9h-3.3c-1.1 0-2.1.9-2.1 2.1v60.7c0 1.1-.9 2.1-2.1 2.1H9.7c-1.1 0-2.1.9-2.1 2.1V78c.1 1 1 2 2.1 2h68.2c1.1 0 2.1-.9 2.1-2.1V9.7c0-1.1-.9-2-2.1-2zm-11 57V2.1C66.9 1 66 0 64.8 0H2.1C.9 0 0 .9 0 2.1v62.7c0 1.1.9 2 2.1 2h62.7c1.1 0 2.1-.9 2.1-2.1zM7.4 9.5c0-1.1.9-2.1 2.1-2.1h47.8c1.1 0 2.1.9 2.1 2.1V30L44.6 43.2c-.9.8-2.3.7-3-.3l-8.4-10.8c-.7-.9-2-1.1-2.9-.3L7.4 50.1V9.5zm52.1 47.8c-.1 1.2-1 2.1-2.2 2.1H13.6c-2 0-2.8-2.5-1.3-3.7l18.4-14.8 9.9 12.8c.7 1 2.1 1.1 3 .3L56 43c1.3-1.2 3.5-.2 3.5 1.6v12.7z"/></symbol><symbol id="perceived-performance" viewBox="0 0 80 46.2" xmlns="http://www.w3.org/2000/svg"><style>.fst0{fill:#242a32}</style><path class="fst0" d="M40 22.7c-.2 0-.4.2-.4.4s.2.4.4.4.4-.2.4-.4-.2-.4-.4-.4zm39.1-1.6C73.6 15.4 57.2 0 40 0 21.5 0 6 15.4.8 21.1c-1.1 1.2-1.1 3 0 4.2C6 31 21.6 46.2 40 46.2c18.3 0 33.9-15.1 39.1-20.8 1.2-1.2 1.2-3.1 0-4.3zm-39 18.1c-8.8 0-16-7.2-16-16s7.2-16 16-16 16 7.2 16 16-7.3 16-16 16zM40 10.3c-7.1 0-12.8 5.7-12.8 12.8S32.9 35.9 40 35.9s12.8-5.7 12.8-12.8S47.1 10.3 40 10.3zm0 23.3c-5.8 0-10.5-4.7-10.5-10.5S34.2 12.6 40 12.6s10.5 4.7 10.5 10.5S45.8 33.6 40 33.6zm0-19.1c-4.8 0-8.6 3.9-8.6 8.6s3.9 8.6 8.6 8.6 8.6-3.9 8.6-8.6-3.8-8.6-8.6-8.6zm-4.7 3.3c2.7-2.4 6.5-2.5 9.4-.3l-.8.8c-2.4-1.8-5.5-1.7-7.8.3l-.8-.8zm10.1.3l-4.3 4.4c.1.2.1.4.1.6 0 .7-.6 1.3-1.3 1.3-.7 0-1.3-.6-1.3-1.3 0-.7.6-1.3 1.3-1.3.3 0 .5.1.7.2l4.3-4.4c.1-.1.3-.1.4 0 .2.2.2.4.1.5z"/></symbol><symbol id="process_workflow" viewBox="0 0 80 66" xmlns="http://www.w3.org/2000/svg"><style>.gst0{fill:#242a32}</style><path class="gst0" d="M35.8 53.9C25.7 52.1 18 43.2 18 32.5c0-7 3.4-13.3 8.5-17.2.3-.2.1-.8-.3-.8H16c-.1 0-.3.1-.3.2-3.7 5-5.9 11.2-5.9 17.8 0 14.9 10.9 27.2 25.1 29.5.4.1.7-.4.4-.7l-2.7-2.7c-.2-.2-.2-.4 0-.6l3.4-3.4c.2-.2.1-.6-.2-.7zM79.9 6.5L73.6.2c-.3-.3-.7-.1-.7.3v2.2H56.6c-.4 0-.6.6-.2.8 3.3 1.9 6.2 4.4 8.7 7.2.1.1.2.1.3.1h7.4V13c0 .4.5.6.7.3L79.8 7c.2-.1.2-.4.1-.5zM39.3 2.7H.4c-.4 0-.6.4-.3.7l5.8 7.3c.1.1.2.2.3.2h33.4c12 0 21.7 9.7 21.7 21.7 0 10.7-7.8 19.6-18 21.4v-2c0-.4-.5-.6-.7-.3L36.3 58c-.2.2-.2.4 0 .6l6.3 6.3c.3.3.7.1.7-.3v-2.5c14.8-1.8 26.3-14.5 26.2-29.9-.1-16.3-13.7-29.5-30.2-29.5zM28.7 29.9l-.1.4-3.3.5c-.2.1-.5.3-.5.5v2.9c0 .2.2.4.4.5h.1l3.3.5.1.4c.3 1.1.7 2 1.2 2.9l.2.4-1.9 2.7c-.1.2-.1.4 0 .6l2 2c.2.2.4.2.6.1l2.7-1.9.3.2c.9.5 1.9.9 2.9 1.2l.4.1.5 3.2c.1.2.3.5.5.5H41c.2 0 .4-.2.5-.4l.5-3.3.4-.1c1-.3 1.9-.7 2.9-1.2l.4-.2 2.6 1.9c.3.1.5.1.7-.1l2-2c.2-.2.2-.4.1-.6l-2-2.7.2-.4c.5-.8.9-1.8 1.2-2.9l.1-.4 3.4-.5c.2-.1.5-.2.5-.5v-2.9c0-.1-.1-.4-.4-.5H54l-3.3-.5-.1-.4c-.2-.9-.6-1.9-1.2-2.9l-.2-.4 1.9-2.6c.1-.3.1-.5-.1-.6l-2-2c-.2-.1-.5-.1-.7 0l-2.7 2-.4-.2c-.8-.5-1.8-.9-2.9-1.2l-.4-.1-.5-3.2c-.1-.2-.2-.3-.5-.3H38s-.4 0-.5.3l-.5 3.2-.4.1c-1.1.3-2 .7-3 1.2l-.4.2-2.6-1.9c-.3-.1-.5-.1-.7 0l-2 2c-.2.2-.2.4-.1.5l1.9 2.7.2.3c-.5.9-.9 1.9-1.2 2.9zm10.9-4.3c3.9 0 7.1 3.2 7.1 7.1s-3.2 7.1-7.1 7.1c-3.9 0-7.1-3.2-7.1-7.1s3.2-7.1 7.1-7.1z"/></symbol><symbol id="svg" viewBox="0 0 80 59.8" xml:space="preserve" xmlns="http://www.w3.org/2000/svg"><style>.hst0{fill:#242a32}</style><path class="hst0" d="M51.5 33.1c-4.4-3.5-7.8-9.3-10.6-18.3-.1-.5-.5-.8-.9-1-.3-.1-.8-.1-1.2 0-.3.2-.7.5-.8.9-3.2 8.7-6.8 14.7-11.1 18.2-.5.3-.7 1-.5 1.7L31 49.8h-1.2v8.3c0 .9.8 1.7 1.7 1.7h15.1c.9 0 1.7-.8 1.7-1.7v-8.3h-1.1L52 34.7c.1-.6-.1-1.3-.5-1.6zm-7.6 16.7h-9.7l-4.7-15.2c3.7-3.3 6.9-8.1 9.8-14.9 2.5 6.9 5.6 11.7 9.4 15.1l-4.8 15zm-2.7-18.1c-2.7-1.6-6.6.1-6.7 4 0 1.5.8 2.7 2 3.5 1.8 1 4.2.8 5.6-.8 2.1-2 1.4-5.3-.9-6.7zM79 36.1h-2.8c-1.4-12.8-9.4-24-21.1-29.3H70c.6.9 1.6 1.5 2.7 1.5 2.2 0 3.7-2 3.1-4.2-.3-1-1.1-1.8-2.2-2-1.5-.5-3 .2-3.6 1.4H45.2V1.1c0-.7-.5-1.1-1.1-1.1h-9.3c-.7 0-1.1.5-1.1 1.1v2.3H8.9C8.1 2.2 6.7 1.6 5.2 2c-1 .2-1.8 1-2.2 2-.6 2.2 1 4.3 3.1 4.3 1.1 0 2.2-.6 2.7-1.5h15.9C13.2 12.2 5 23.4 3.6 36.1H1.1c-.7 0-1.1.5-1.1 1.1v9.3c0 .7.5 1.1 1.1 1.1h9.3c.7 0 1.1-.5 1.1-1.1v-9.4c0-.7-.5-1.1-1.1-1.1H8.2C9.8 22.4 20.1 11.2 33.5 8.5v1.8c0 .7.5 1.1 1.1 1.1H44c.7 0 1.1-.5 1.1-1.1v-2c14 2.4 24.7 13.6 26.4 27.7h-1.9c-.7 0-1.1.5-1.1 1.1v9.4c0 .7.5 1.1 1.1 1.1h9.3c.7 0 1.1-.5 1.1-1.1v-9.4c.1-.5-.4-1-1-1zM7.2 43.2H4.7v-2.5h2.5v2.5zM40.7 6.8h-2.5V4.5c.9 0 1.7-.1 2.5 0v2.3zm34.9 36.4h-2.5v-2.5h2.5v2.5z"/></symbol><symbol viewBox="0 0 20 20" id="twitter" xmlns="http://www.w3.org/2000/svg"><path d="M17.316 6.246c.008.162.011.326.011.488 0 4.99-3.797 10.742-10.74 10.742-2.133 0-4.116-.625-5.787-1.697a7.577 7.577 0 0 0 5.588-1.562 3.779 3.779 0 0 1-3.526-2.621 3.858 3.858 0 0 0 1.705-.065 3.779 3.779 0 0 1-3.028-3.703v-.047a3.766 3.766 0 0 0 1.71.473 3.775 3.775 0 0 1-1.168-5.041 10.716 10.716 0 0 0 7.781 3.945 3.813 3.813 0 0 1-.097-.861 3.773 3.773 0 0 1 3.774-3.773 3.77 3.77 0 0 1 2.756 1.191 7.602 7.602 0 0 0 2.397-.916 3.789 3.789 0 0 1-1.66 2.088 7.55 7.55 0 0 0 2.168-.594 7.623 7.623 0 0 1-1.884 1.953z"/></symbol></svg>