<svg id="Layer_1" xmlns="http://www.w3.org/2000/svg" viewBox="0 0 80 78.9"><style>.st0{opacity:.2;fill:#242a32}.st1{opacity:.5}.st1,.st2{fill:#242a32}</style><path class="st0" d="M78.9 43.4l-.2-.1-8.2-3.5v-1.1c0-2.5-.5-5.3-1.3-8.3l-.3-1.1 6.7-5.6c.5-.6.6-1.2.3-1.7l-4-6.5c-.4-.5-1.2-.6-1.7-.5L62 18.4l-.8-.8c-1.9-2-4-3.6-6.7-5l-1-.5.6-8.6c0-.5-.4-1-1-1.2L45.7.5c-.1 0-1.1-.4-1.4.4L40.8 9h-1.1c-3 0-5.7.4-8.5 1.3l-1 .3L24.6 4c-.6-.5-1.2-.6-1.7-.3l-6.6 4c-.6.4-.7 1.1-.6 1.3v.1l3.3 8.3-.7.8c-1.9 2-3.6 4.3-4.9 6.8l-.5 1-9-.7c-.6 0-1.5.4-1.6.9L.5 33.6c-.1.5.2 1.3.8 1.5h.1l8.2 3.5v1.1c0 3 .5 5.7 1.3 8.3l.4 1.1-6.7 5.8c-.4.3-.5 1-.4 1.4l3.9 6.5c.4.6 1 .9 1.5.6l.1-.1L18 60l.8.7c2 1.9 4.3 3.6 6.8 4.9l1 .5-.6 9c0 .6.4 1.4.9 1.6l7.4 1.8c.6.2 1.3-.2 1.5-.8v-.1l3.5-8.2h1.1c2.7-.1 5.5-.5 8.2-1.2l1-.3 5.6 6.7c.6.5 1.2.6 1.7.3l6.6-4c.6-.4.9-1 .6-1.5v-.1l-3.4-8.2.8-.8c2-1.9 3.6-4 5-6.7l.5-1 9.1.8c.5 0 1.4-.3 1.5-.9l1.8-7.4c.3-.4.2-1.4-.5-1.7zm-20.6.3C55.8 53.8 45.5 60 35.4 57.5 25.3 55 19.1 44.8 21.6 34.7s12.7-16.3 22.8-13.8c10.2 2.4 16.4 12.7 13.9 22.8z"/><path class="st1" d="M79.1 38.9h-.2l-8.5-2.6-.2-1.1c-.3-2.5-1.1-5.2-2.3-8.1l-.4-1 6-6.3c.5-.6.5-1.2.1-1.7L68.9 12c-.5-.5-1.2-.5-1.7-.3L59.5 16l-.9-.7c-2.1-1.7-4.4-3.1-7.2-4.2l-1-.4-.4-8.6c-.1-.5-.5-1-1.2-1.1l-7.6-1c-.1 0-1.1-.3-1.3.6L37.3 9l-1.1.1c-2.9.3-5.7 1.1-8.3 2.2l-1 .4L20.6 6c-.6-.5-1.2-.5-1.8-.1l-6.1 4.7c-.6.4-.6 1.1-.4 1.4v.1l4.2 7.9-.6.9c-1.7 2.2-3 4.7-4.1 7.3l-.4 1-9 .3c-.5.1-1.3.5-1.4 1l-1 7.6c-.1.6.3 1.2 1 1.4h.1l8.6 2.6.1 1.1c.3 2.9 1.1 5.6 2.3 8.1l.5 1-6 6.5c-.4.4-.4 1.1-.2 1.5l4.7 6c.4.5 1.1.7 1.5.5l.1-.1 7.9-4.2.9.6c2.2 1.7 4.7 3 7.3 4.1l1 .4.3 8.8c.1.6.5 1.4 1.1 1.5l7.6 1c.6.1 1.2-.4 1.4-1v-.1l2.6-8.6 1.1-.2c2.7-.4 5.4-1.1 8-2.2l1-.4 6.3 6c.6.5 1.2.5 1.7.1l6.1-4.7c.5-.4.7-1.1.5-1.5l-.1-.1-4.3-7.7.7-.9c1.7-2.1 3.1-4.4 4.2-7.2l.4-1 9.1-.3c.5-.1 1.3-.4 1.4-1.1l1-7.6c.1-.3 0-1.3-.8-1.5zm-20.5 2.7c-1.3 10.3-10.8 17.6-21.1 16.3-10.3-1.3-17.6-10.8-16.3-21.1S32 19.1 42.3 20.5c10.3 1.3 17.6 10.8 16.3 21.1z"/><path class="st2" d="M78.7 33.9h-.2l-8.8-1.5-.3-1.1c-.6-2.4-1.7-5-3.3-7.8l-.5-.9 5.1-7c.4-.7.3-1.3-.1-1.7l-5.4-5.4c-.5-.4-1.3-.3-1.8-.1l-7.1 5.2-1-.6c-2.3-1.5-4.8-2.5-7.7-3.3l-1.1-.3L45.1.9c-.2-.5-.6-.9-1.3-.9h-7.7c-.1 0-1.2-.1-1.3.7l-1.5 8.7-1.1.3c-2.9.7-5.5 1.8-7.9 3.3l-.9.6-7-5c-.7-.4-1.3-.3-1.8.1l-5.5 5.5c-.5.5-.4 1.2-.2 1.4l.1.1 5.2 7.3-.4 1c-1.4 2.4-2.4 5-3.1 7.8l-.3 1.1-8.9 1.4c-.6.2-1.3.7-1.3 1.3v7.7c0 .6.5 1.2 1.2 1.3h.1l8.8 1.5.3 1.1c.7 2.9 1.8 5.4 3.3 7.7l.6.9L9.4 63c-.4.4-.2 1.1 0 1.5l5.4 5.4c.5.5 1.2.6 1.6.3l.1-.1 7.3-5.2.9.5c2.4 1.4 5 2.4 7.8 3.1l1.1.3 1.4 8.7c.2.6.7 1.3 1.3 1.3H44c.7 0 1.2-.5 1.3-1.1v-.1l1.5-8.8 1-.3c2.6-.7 5.2-1.8 7.6-3.2l.9-.5 7 5.1c.7.4 1.3.3 1.7-.1l5.5-5.5c.5-.5.6-1.2.3-1.6l-.1-.1-5.2-7.1.6-1c1.5-2.3 2.5-4.8 3.3-7.7l.3-1.1 9-1.4c.5-.2 1.3-.6 1.3-1.3v-7.7c-.2-.3-.5-1.3-1.3-1.4zm-20 5.3c0 10.4-8.5 18.9-18.9 18.9-10.3 0-18.8-8.5-18.8-18.9s8.5-18.9 18.9-18.9c10.4 0 18.8 8.5 18.8 18.9z"/></svg>