<svg id="Layer_1" xmlns="http://www.w3.org/2000/svg" viewBox="0 0 80 42.8"><style>.st0{fill:#242a32}</style><path class="st0" d="M28.8.4c-.1-.3-.4-.4-.6-.4H18.1c-.2 0-.4.1-.5.4L0 41.3c-.1.5.2.9.6.9h10.8c.3 0 .5-.2.6-.4l2.7-6c.1-.3.4-.4.6-.4h15.4c.3 0 .5.2.6.4l2.5 5.9c.1.3.4.4.6.4h11c.5 0 .8-.4.6-.8L28.8.4zm-2.4 25.2h-7.8c-.5 0-.8-.4-.6-.8l3.8-9.4c.2-.5.9-.5 1.1 0l3.9 9.4c.1.4-.1.8-.4.8zm52.8-8.1c-.6-1.7-1.5-3.1-2.7-4.3-1.3-1.2-3-2.2-5-2.9s-4.5-1-7.4-1c-2.8 0-5.2.2-7.3.7-1.8.4-3.6.9-5.3 1.6-.3.1-.5.4-.4.7l2 6.8c.1.3.5.5.8.4 1.2-.5 2.4-.8 3.6-1.1 1.4-.3 3-.5 4.7-.5 2.2 0 3.8.5 4.9 1.4 1.1.9 1.6 2.2 1.6 3.9 0 .3-.2.5-.5.4-.8-.3-1.8-.5-2.9-.7-1.3-.3-2.8-.4-4.3-.4-1.9 0-3.6.3-5.2.7-1.6.4-2.9 1.1-4 1.9-1.1.9-2 1.9-2.6 3.2-.6 1.3-.9 2.7-.9 4.4v.1c0 1.6.2 3.1.8 4.3.6 1.2 1.3 2.3 2.3 3.1.9.8 2.1 1.5 3.4 1.9 1.3.5 2.7.7 4.3.7 2.2 0 4-.3 5.6-1.1 1.6-.8 2.9-1.8 4-3v2.7c0 .3.3.6.6.6h10.1c.3 0 .6-.3.6-.6v-18c0-2.2-.3-4.2-.8-5.9zM68.9 30.4c0 1.6-.6 2.9-1.6 3.9-1.1.9-2.4 1.4-4.1 1.4-1.1 0-2.1-.3-2.8-.9-.7-.6-1.1-1.5-1.1-2.6v-.1c0-1.2.4-2.2 1.3-2.9.9-.7 2.2-1.1 3.9-1.1.8 0 1.6 0 2.4.2.6.1 1.1.2 1.6.4.2.1.4.3.4.6v1.1z"/></svg>