<svg id="Layer_1" xmlns="http://www.w3.org/2000/svg" viewBox="0 0 80 80"><style>.st0{fill:#242a32}</style><path class="st0" d="M21.9 13.6c-4.2-.9-8 2.3-8 6.4 0 3.7 3 6.6 6.6 6.6 4.1 0 7.3-3.7 6.4-8-.5-2.5-2.5-4.5-5-5zm56-5.9h-3.3c-1.1 0-2.1.9-2.1 2.1v60.7c0 1.1-.9 2.1-2.1 2.1H9.7c-1.1 0-2.1.9-2.1 2.1V78c.1 1 1 2 2.1 2h68.2c1.1 0 2.1-.9 2.1-2.1V9.7c0-1.1-.9-2-2.1-2zm-11 57V2.1C66.9 1 66 0 64.8 0H2.1C.9 0 0 .9 0 2.1v62.7c0 1.1.9 2 2.1 2h62.7c1.1 0 2.1-.9 2.1-2.1zM7.4 9.5c0-1.1.9-2.1 2.1-2.1h47.8c1.1 0 2.1.9 2.1 2.1V30L44.6 43.2c-.9.8-2.3.7-3-.3l-8.4-10.8c-.7-.9-2-1.1-2.9-.3L7.4 50.1V9.5zm52.1 47.8c-.1 1.2-1 2.1-2.2 2.1H13.6c-2 0-2.8-2.5-1.3-3.7l18.4-14.8 9.9 12.8c.7 1 2.1 1.1 3 .3L56 43c1.3-1.2 3.5-.2 3.5 1.6v12.7z"/></svg>