<svg id="Layer_1" xmlns="http://www.w3.org/2000/svg" viewBox="0 0 80 66"><style>.st0{fill:#242a32}</style><path class="st0" d="M35.8 53.9C25.7 52.1 18 43.2 18 32.5c0-7 3.4-13.3 8.5-17.2.3-.2.1-.8-.3-.8H16c-.1 0-.3.1-.3.2-3.7 5-5.9 11.2-5.9 17.8 0 14.9 10.9 27.2 25.1 29.5.4.1.7-.4.4-.7l-2.7-2.7c-.2-.2-.2-.4 0-.6l3.4-3.4c.2-.2.1-.6-.2-.7zM79.9 6.5L73.6.2c-.3-.3-.7-.1-.7.3v2.2H56.6c-.4 0-.6.6-.2.8 3.3 1.9 6.2 4.4 8.7 7.2.1.1.2.1.3.1h7.4V13c0 .4.5.6.7.3L79.8 7c.2-.1.2-.4.1-.5zM39.3 2.7H.4c-.4 0-.6.4-.3.7l5.8 7.3c.1.1.2.2.3.2h33.4c12 0 21.7 9.7 21.7 21.7 0 10.7-7.8 19.6-18 21.4v-2c0-.4-.5-.6-.7-.3L36.3 58c-.2.2-.2.4 0 .6l6.3 6.3c.3.3.7.1.7-.3v-2.5c14.8-1.8 26.3-14.5 26.2-29.9-.1-16.3-13.7-29.5-30.2-29.5zM28.7 29.9l-.1.4-3.3.5c-.2.1-.5.3-.5.5v2.9c0 .2.2.4.4.5h.1l3.3.5.1.4c.3 1.1.7 2 1.2 2.9l.2.4-1.9 2.7c-.1.2-.1.4 0 .6l2 2c.2.2.4.2.6.1l2.7-1.9.3.2c.9.5 1.9.9 2.9 1.2l.4.1.5 3.2c.1.2.3.5.5.5H41c.2 0 .4-.2.5-.4l.5-3.3.4-.1c1-.3 1.9-.7 2.9-1.2l.4-.2 2.6 1.9c.3.1.5.1.7-.1l2-2c.2-.2.2-.4.1-.6l-2-2.7.2-.4c.5-.8.9-1.8 1.2-2.9l.1-.4 3.4-.5c.2-.1.5-.2.5-.5v-2.9c0-.1-.1-.4-.4-.5H54l-3.3-.5-.1-.4c-.2-.9-.6-1.9-1.2-2.9l-.2-.4 1.9-2.6c.1-.3.1-.5-.1-.6l-2-2c-.2-.1-.5-.1-.7 0l-2.7 2-.4-.2c-.8-.5-1.8-.9-2.9-1.2l-.4-.1-.5-3.2c-.1-.2-.2-.3-.5-.3H38s-.4 0-.5.3l-.5 3.2-.4.1c-1.1.3-2 .7-3 1.2l-.4.2-2.6-1.9c-.3-.1-.5-.1-.7 0l-2 2c-.2.2-.2.4-.1.5l1.9 2.7.2.3c-.5.9-.9 1.9-1.2 2.9zm10.9-4.3c3.9 0 7.1 3.2 7.1 7.1s-3.2 7.1-7.1 7.1c-3.9 0-7.1-3.2-7.1-7.1s3.2-7.1 7.1-7.1z"/></svg>