<?xml version="1.0" encoding="utf-8"?>
<!-- Generator: Adobe Illustrator 19.2.1, SVG Export Plug-In . SVG Version: 6.00 Build 0)  -->
<svg version="1.1" id="Layer_1" xmlns="http://www.w3.org/2000/svg" xmlns:xlink="http://www.w3.org/1999/xlink" x="0px" y="0px"
	 viewBox="0 0 80 59.8" style="enable-background:new 0 0 80 59.8;" xml:space="preserve">
<style type="text/css">
	.st0{fill:#242A32;}
</style>
<path class="st0" d="M51.5,33.1c-4.4-3.5-7.8-9.3-10.6-18.3c-0.1-0.5-0.5-0.8-0.9-1c-0.3-0.1-0.8-0.1-1.2,0
	c-0.3,0.2-0.7,0.5-0.8,0.9c-3.2,8.7-6.8,14.7-11.1,18.2c-0.5,0.3-0.7,1-0.5,1.7L31,49.8h-1.2v8.3c0,0.9,0.8,1.7,1.7,1.7h15.1
	c0.9,0,1.7-0.8,1.7-1.7v-8.3h-1.1L52,34.7C52.1,34.1,51.9,33.4,51.5,33.1z M43.9,49.8h-9.7l-4.7-15.2c3.7-3.3,6.9-8.1,9.8-14.9
	c2.5,6.9,5.6,11.7,9.4,15.1C48.7,34.8,43.9,49.8,43.9,49.8z M41.2,31.7c-2.7-1.6-6.6,0.1-6.7,4c0,1.5,0.8,2.7,2,3.5
	c1.8,1,4.2,0.8,5.6-0.8C44.2,36.4,43.5,33.1,41.2,31.7z M79,36.1h-2.8c-1.4-12.8-9.4-24-21.1-29.3h14.9c0.6,0.9,1.6,1.5,2.7,1.5
	c2.2,0,3.7-2,3.1-4.2c-0.3-1-1.1-1.8-2.2-2c-1.5-0.5-3,0.2-3.6,1.4H45.2V1.1c0-0.7-0.5-1.1-1.1-1.1h-9.3c-0.7,0-1.1,0.5-1.1,1.1v2.3
	H8.9C8.1,2.2,6.7,1.6,5.2,2c-1,0.2-1.8,1-2.2,2C2.4,6.2,4,8.3,6.1,8.3c1.1,0,2.2-0.6,2.7-1.5h15.9C13.2,12.2,5,23.4,3.6,36.1H1.1
	c-0.7,0-1.1,0.5-1.1,1.1v9.3c0,0.7,0.5,1.1,1.1,1.1h9.3c0.7,0,1.1-0.5,1.1-1.1v-9.4c0-0.7-0.5-1.1-1.1-1.1H8.2
	C9.8,22.4,20.1,11.2,33.5,8.5v1.8c0,0.7,0.5,1.1,1.1,1.1H44c0.7,0,1.1-0.5,1.1-1.1v-2c14,2.4,24.7,13.6,26.4,27.7h-1.9
	c-0.7,0-1.1,0.5-1.1,1.1v9.4c0,0.7,0.5,1.1,1.1,1.1h9.3c0.7,0,1.1-0.5,1.1-1.1v-9.4C80.1,36.6,79.6,36.1,79,36.1z M7.2,43.2H4.7
	v-2.5h2.5V43.2z M40.7,6.8h-2.5V4.5c0.9,0,1.7-0.1,2.5,0V6.8z M75.6,43.2h-2.5v-2.5h2.5V43.2z"/>
</svg>
